HIERARCHY
ROOT Hips
{
	OFFSET 49.861900 -1.836769 54.065701
	CHANNELS 6 Xposition Yposition Zposition Xrotation Yrotation Zrotation
	JOINT spine
	{
		OFFSET 0.000000 -0.448574 7.800591
		CHANNELS 3 Xrotation Yrotation Zrotation
		JOINT spine1
		{
			OFFSET 0.000000 -0.000002 10.136402
			CHANNELS 3 Xrotation Yrotation Zrotation
			JOINT spine2
			{
				OFFSET 0.000000 -0.000002 9.712509
				CHANNELS 3 Xrotation Yrotation Zrotation
				JOINT Neck
				{
					OFFSET 0.000000 -1.188874 24.936104
					CHANNELS 3 Xrotation Yrotation Zrotation
					JOINT Head
					{
						OFFSET 0.000000 -0.000001 7.533844
						CHANNELS 3 Xrotation Yrotation Zrotation
						End Site
						{
							OFFSET 0.000000 6.014017 18.236099
						}
					}
				}
				JOINT RightShoulder
				{
					OFFSET -4.089649 0.569455 10.488800
					CHANNELS 3 Xrotation Yrotation Zrotation
					JOINT RightArm
					{
						OFFSET 0.000000 -0.000002 13.756996
						CHANNELS 3 Xrotation Yrotation Zrotation
						JOINT RightArmRoll
						{
							OFFSET 0.000000 -0.000001 6.944778
							CHANNELS 3 Xrotation Yrotation Zrotation
							JOINT RightForeArm
							{
								OFFSET 0.000000 -0.000003 20.227707
								CHANNELS 3 Xrotation Yrotation Zrotation
								JOINT RightForeArmRoll
								{
									OFFSET 0.000000 -0.000001 7.793121
									CHANNELS 3 Xrotation Yrotation Zrotation
									JOINT RightHand
									{
										OFFSET 0.000000 -0.000003 15.639099
										CHANNELS 3 Xrotation Yrotation Zrotation
										End Site
										{
											OFFSET 0.000000 0.000000 0.100006
										}
									}
								}
							}
						}
					}
				}
				JOINT LeftShoulder
				{
					OFFSET 4.089649 0.569455 10.488800
					CHANNELS 3 Xrotation Yrotation Zrotation
					JOINT LeftArm
					{
						OFFSET 0.000000 -0.000002 13.756996
						CHANNELS 3 Xrotation Yrotation Zrotation
						JOINT LeftArmRoll
						{
							OFFSET 0.000000 -0.000001 6.944778
							CHANNELS 3 Xrotation Yrotation Zrotation
							JOINT LeftForeArm
							{
								OFFSET 0.000000 -0.000003 20.227707
								CHANNELS 3 Xrotation Yrotation Zrotation
								JOINT LeftForeArmRoll
								{
									OFFSET 0.000000 -0.000001 7.793121
									CHANNELS 3 Xrotation Yrotation Zrotation
									JOINT LeftHand
									{
										OFFSET 0.000000 -0.000003 15.639099
										CHANNELS 3 Xrotation Yrotation Zrotation
										End Site
										{
											OFFSET 0.000000 0.000000 0.100006
										}
									}
								}
							}
						}
					}
				}
			}
		}
	}
	JOINT RightUpLeg
	{
		OFFSET -6.914162 1.063580 -1.267879
		CHANNELS 3 Xrotation Yrotation Zrotation
		JOINT RightUpLegRoll
		{
			OFFSET 0.000000 -0.000003 18.337799
			CHANNELS 3 Xrotation Yrotation Zrotation
			JOINT RightLeg
			{
				OFFSET 0.000000 0.000004 -22.708500
				CHANNELS 3 Xrotation Yrotation Zrotation
				JOINT RightLegRoll
				{
					OFFSET 0.000000 -0.000004 22.782803
					CHANNELS 3 Xrotation Yrotation Zrotation
					JOINT RightFoot
					{
						OFFSET 0.000000 -0.000003 18.962898
						CHANNELS 3 Xrotation Yrotation Zrotation
						JOINT RightToeBase
						{
							OFFSET 0.000000 -0.000003 15.851997
							CHANNELS 3 Xrotation Yrotation Zrotation
							End Site
							{
								OFFSET 0.006718 0.884892 7.677002
							}
						}
					}
				}
			}
		}
	}
	JOINT LeftUpLeg
	{
		OFFSET 6.914162 1.063580 -1.267879
		CHANNELS 3 Xrotation Yrotation Zrotation
		JOINT LeftUpLegRoll
		{
			OFFSET 0.000000 -0.000003 18.337898
			CHANNELS 3 Xrotation Yrotation Zrotation
			JOINT LeftLeg
			{
				OFFSET 0.000000 -0.000004 22.708397
				CHANNELS 3 Xrotation Yrotation Zrotation
				JOINT LeftLegRoll
				{
					OFFSET 0.000000 -0.000004 22.993401
					CHANNELS 3 Xrotation Yrotation Zrotation
					JOINT LeftFoot
					{
						OFFSET 0.000000 -0.000003 18.752205
						CHANNELS 3 Xrotation Yrotation Zrotation
						JOINT LeftToeBase
						{
							OFFSET 0.000000 -0.000003 15.852005
							CHANNELS 3 Xrotation Yrotation Zrotation
							End Site
							{
								OFFSET -0.030113 0.884891 7.677017
							}
						}
					}
				}
			}
		}
	}
}
MOTION
Frames: 5
Frame Time: 0.041667
54.903698 -33.853008 93.841797 -5.850474 1.755444 4.958036 -0.709627 -0.377014 -0.016854 2.563606 -0.743920 -0.045374 4.208727 -0.744329 -0.036374 16.368786 3.202638 -1.987697 -11.841373 -6.133981 -2.030778 -17.567511 -75.876742 -20.889493 119.514063 -52.456649 65.989593 -0.000013 0.000026 -0.000010 96.813246 5.870438 -12.722749 0.000005 0.000006 -2.999998 -4.999919 -8.000356 0.000002 -0.844778 60.951857 1.258354 -39.203489 121.945023 84.118813 0.000000 -0.000001 -0.000001 95.261714 -0.191686 12.208809 0.000000 -0.000008 3.000011 -5.000003 8.000022 -0.000040 -2.163584 175.183410 -3.840764 -179.999991 0.000005 -1.122004 168.205539 -0.767455 -0.634243 -0.000004 -0.000000 0.259022 69.613739 7.549768 0.337687 25.456854 -7.355619 -0.000002 -5.403743 178.734644 5.301496 -0.000005 -0.000004 -1.246260 -19.116424 4.666837 1.257447 0.000004 -0.000004 -0.325874 73.036873 -7.369913 -0.469700 25.465841 7.355620 0.000005 
54.906494 -33.834110 93.840103 -5.842309 1.750684 4.963236 -0.701528 -0.376244 -0.016483 2.581238 -0.742531 -0.043708 4.226367 -0.742925 -0.034730 16.314566 3.206979 -1.972308 -11.804146 -6.097798 -2.014925 -17.574167 -75.874475 -20.896667 119.512041 -52.463680 65.988309 -0.000014 0.000027 -0.000012 96.763672 5.856043 -12.688348 0.000004 0.000010 -3.000000 -4.999919 -8.000351 0.000002 -0.916252 60.935587 1.339498 -39.129095 121.956771 84.058018 -0.000000 -0.000001 -0.000001 95.271351 -0.201607 12.216277 0.000005 -0.000009 3.000011 -5.000004 8.000018 -0.000036 -2.198629 175.189544 -3.837082 -179.999991 0.000005 -1.122004 168.178423 -0.768355 -0.634811 -0.000004 -0.000000 0.259008 69.610973 7.549797 0.337981 25.456856 -7.355621 -0.000001 -5.432350 178.738688 5.300558 -0.000004 -0.000004 -1.246280 -19.130964 4.669909 1.258417 0.000003 -0.000004 -0.325874 73.036237 -7.370245 -0.467193 25.465838 7.355619 0.000005 
54.906696 -33.801308 93.835693 -5.834176 1.745845 4.967961 -0.693417 -0.375408 -0.016142 2.598958 -0.740996 -0.042071 4.244075 -0.741375 -0.033119 16.259014 3.209491 -1.956476 -11.766483 -6.059842 -1.998702 -17.582145 -75.873143 -20.905264 119.506413 -52.472016 65.981164 -0.000013 0.000029 -0.000009 96.715096 5.842399 -12.654044 0.000005 0.000005 -2.999998 -4.999920 -8.000353 0.000005 -0.989911 60.918273 1.423075 -39.054065 121.969461 83.995795 -0.000000 0.000001 -0.000001 95.282061 -0.211697 12.224762 0.000004 -0.000012 3.000008 -5.000000 8.000024 -0.000037 -2.233665 175.194653 -3.833207 -179.999991 0.000005 -1.122003 168.151225 -0.770230 -0.635586 -0.000004 -0.000001 0.258975 69.608281 7.549760 0.338357 25.456856 -7.355621 -0.000001 -5.460725 178.743728 5.299528 -0.000005 -0.000004 -1.246300 -19.145507 4.673054 1.259376 0.000003 -0.000004 -0.325874 73.035616 -7.370572 -0.464681 25.465840 7.355619 0.000005 
54.904995 -33.785007 93.831589 -5.826078 1.740946 4.972371 -0.685290 -0.374529 -0.015824 2.616728 -0.739357 -0.040457 4.261845 -0.739723 -0.031530 16.202436 3.210718 -1.940347 -11.728507 -6.020634 -1.982239 -17.590956 -75.872385 -20.914770 119.500717 -52.480274 65.972982 -0.000012 0.000029 -0.000012 96.667490 5.829105 -12.620841 0.000006 0.000009 -3.000001 -4.999921 -8.000352 -0.000001 -1.065071 60.900193 1.508312 -38.977079 121.983777 83.930840 -0.000000 -0.000001 0.000001 95.293556 -0.222045 12.233273 0.000002 -0.000011 3.000009 -5.000000 8.000026 -0.000038 -2.268674 175.200745 -3.829271 -179.999991 0.000006 -1.121006 168.123904 -0.772118 -0.636366 -0.000004 -0.000000 0.258928 69.605597 7.549757 0.338538 25.456856 -7.355623 -0.000001 -5.488932 178.747758 5.298594 -0.000003 -0.000004 -1.246330 -19.160057 4.676254 1.260330 0.000002 -0.000003 -0.325874 73.035015 -7.370963 -0.462080 25.465843 7.355619 0.000005 
54.905792 -33.775009 93.832397 -5.818000 1.736006 4.976592 -0.677162 -0.373623 -0.015516 2.634529 -0.737659 -0.038854 4.279656 -0.738012 -0.029954 16.145447 3.211201 -1.924060 -11.690323 -5.980694 -1.965656 -17.600322 -75.871988 -20.924877 119.493763 -52.488945 65.962661 -0.000014 0.000027 -0.000010 96.620259 5.816062 -12.588661 0.000004 0.000006 -3.000004 -4.999918 -8.000354 0.000003 -1.141044 60.881670 1.594454 -38.900151 121.998134 83.865687 0.000001 0.000000 -0.000004 95.305413 -0.232451 12.242761 0.000003 -0.000009 3.000010 -5.000000 8.000018 -0.000041 -2.303689 175.206865 -3.825282 -179.999991 0.000005 -1.121007 168.096502 -0.773992 -0.638142 -0.000004 -0.000000 0.258870 69.602817 7.549752 0.338927 25.456856 -7.355622 -0.000001 -5.517049 178.752812 5.297566 -0.000004 -0.000004 -1.246360 -19.174499 4.679497 1.261273 0.000003 -0.000003 -0.325874 73.034400 -7.371320 -0.459574 25.465840 7.355619 0.000005 
